<svg width="82" height="82" viewBox="0 0 82 82" fill="none" xmlns="http://www.w3.org/2000/svg">
<g filter="url(#filter0_d_165_134)">
<rect x="6" y="6" width="70" height="70" rx="12" fill="#00A54F" shape-rendering="crispEdges"/>
<path d="M37.7424 57.2877V54.0301H58.9167V57.2877H37.7424ZM39.3712 52.4013C39.3712 50.2024 40.0635 48.2818 41.4479 46.6395C42.8324 44.9971 44.5833 43.9859 46.7008 43.6059V42.5879C46.7008 42.1264 46.8569 41.7395 47.169 41.4273C47.4812 41.1152 47.8681 40.9591 48.3296 40.9591C48.791 40.9591 49.1779 41.1152 49.4901 41.4273C49.8022 41.7395 49.9583 42.1264 49.9583 42.5879V43.6059C52.0486 43.9859 53.7928 44.9971 55.1908 46.6395C56.5889 48.2818 57.2879 50.2024 57.2879 52.4013H39.3712ZM23.0833 42.6286H29.5985V24.7119H23.0833V42.6286ZM32.8561 42.6286H36.0729L47.5559 38.353C48.0174 38.163 48.3974 37.8576 48.696 37.4368C48.9946 37.016 49.1439 36.5478 49.1439 36.032C49.1439 35.5976 48.9946 35.2312 48.696 34.9326C48.3974 34.6339 48.0309 34.4846 47.5966 34.4846H42.6288L39.7784 35.5841L39.2083 34.0774L42.6288 32.8559H54.0303C54.899 32.8559 55.6591 32.5437 56.3106 31.9193C56.9621 31.2949 57.2879 30.5213 57.2879 29.5983L44.2576 24.7119L32.8561 27.8881V42.6286Z" fill="white"/>
</g>
<defs>
<filter id="filter0_d_165_134" x="0" y="0" width="82" height="82" filterUnits="userSpaceOnUse" color-interpolation-filters="sRGB">
<feFlood flood-opacity="0" result="BackgroundImageFix"/>
<feColorMatrix in="SourceAlpha" type="matrix" values="0 0 0 0 0 0 0 0 0 0 0 0 0 0 0 0 0 0 127 0" result="hardAlpha"/>
<feOffset/>
<feGaussianBlur stdDeviation="3"/>
<feComposite in2="hardAlpha" operator="out"/>
<feColorMatrix type="matrix" values="0 0 0 0 0 0 0 0 0 0 0 0 0 0 0 0 0 0 0.25 0"/>
<feBlend mode="normal" in2="BackgroundImageFix" result="effect1_dropShadow_165_134"/>
<feBlend mode="normal" in="SourceGraphic" in2="effect1_dropShadow_165_134" result="shape"/>
</filter>
</defs>
</svg>
