<svg width="82" height="82" viewBox="0 0 82 82" fill="none" xmlns="http://www.w3.org/2000/svg">
<g filter="url(#filter0_d_165_155)">
<rect x="6" y="6" width="70" height="70" rx="12" fill="#00A54F" shape-rendering="crispEdges"/>
<path d="M40.974 50.3747C42.6406 50.3747 44.125 49.8799 45.4271 48.8903C46.7292 47.9007 47.6753 46.6247 48.2656 45.0622H33.6823C34.2726 46.6247 35.2188 47.9007 36.5208 48.8903C37.8229 49.8799 39.3073 50.3747 40.974 50.3747ZM35.7656 42.0413C36.6337 42.0413 37.3715 41.7375 37.9792 41.1299C38.5868 40.5222 38.8906 39.7844 38.8906 38.9163C38.8906 38.0483 38.5868 37.3104 37.9792 36.7028C37.3715 36.0952 36.6337 35.7913 35.7656 35.7913C34.8976 35.7913 34.1597 36.0952 33.5521 36.7028C32.9444 37.3104 32.6406 38.0483 32.6406 38.9163C32.6406 39.7844 32.9444 40.5222 33.5521 41.1299C34.1597 41.7375 34.8976 42.0413 35.7656 42.0413ZM46.1823 42.0413C47.0503 42.0413 47.7882 41.7375 48.3958 41.1299C49.0035 40.5222 49.3073 39.7844 49.3073 38.9163C49.3073 38.0483 49.0035 37.3104 48.3958 36.7028C47.7882 36.0952 47.0503 35.7913 46.1823 35.7913C45.3142 35.7913 44.5764 36.0952 43.9688 36.7028C43.3611 37.3104 43.0573 38.0483 43.0573 38.9163C43.0573 39.7844 43.3611 40.5222 43.9688 41.1299C44.5764 41.7375 45.3142 42.0413 46.1823 42.0413ZM31.8594 30.3747L37.6927 22.8226C38.1094 22.267 38.6042 21.859 39.1771 21.5986C39.75 21.3382 40.349 21.208 40.974 21.208C41.599 21.208 42.1979 21.3382 42.7708 21.5986C43.3438 21.859 43.8385 22.267 44.2552 22.8226L50.0885 30.3747L58.9427 33.3434C59.8455 33.6212 60.5573 34.1334 61.0781 34.8799C61.599 35.6264 61.8594 36.4511 61.8594 37.3538C61.8594 37.7705 61.7986 38.1872 61.6771 38.6038C61.5556 39.0205 61.3559 39.4198 61.0781 39.8018L55.349 47.9268L55.5573 56.4684C55.592 57.6837 55.1927 58.708 54.3594 59.5413C53.526 60.3747 52.5538 60.7913 51.4427 60.7913C51.3733 60.7913 50.9913 60.7393 50.2969 60.6351L40.974 58.0309L31.651 60.6351C31.4774 60.7045 31.2865 60.7479 31.0781 60.7653C30.8698 60.7827 30.6788 60.7913 30.5052 60.7913C29.3941 60.7913 28.4219 60.3747 27.5885 59.5413C26.7552 58.708 26.3559 57.6837 26.3906 56.4684L26.599 47.8747L20.9219 39.8018C20.6441 39.4198 20.4444 39.0205 20.3229 38.6038C20.2014 38.1872 20.1406 37.7705 20.1406 37.3538C20.1406 36.4858 20.3924 35.6785 20.8958 34.932C21.3993 34.1854 22.1024 33.6559 23.0052 33.3434L31.8594 30.3747Z" fill="white"/>
</g>
<defs>
<filter id="filter0_d_165_155" x="0" y="0" width="82" height="82" filterUnits="userSpaceOnUse" color-interpolation-filters="sRGB">
<feFlood flood-opacity="0" result="BackgroundImageFix"/>
<feColorMatrix in="SourceAlpha" type="matrix" values="0 0 0 0 0 0 0 0 0 0 0 0 0 0 0 0 0 0 127 0" result="hardAlpha"/>
<feOffset/>
<feGaussianBlur stdDeviation="3"/>
<feComposite in2="hardAlpha" operator="out"/>
<feColorMatrix type="matrix" values="0 0 0 0 0 0 0 0 0 0 0 0 0 0 0 0 0 0 0.25 0"/>
<feBlend mode="normal" in2="BackgroundImageFix" result="effect1_dropShadow_165_155"/>
<feBlend mode="normal" in="SourceGraphic" in2="effect1_dropShadow_165_155" result="shape"/>
</filter>
</defs>
</svg>
