<svg width="82" height="82" viewBox="0 0 82 82" fill="none" xmlns="http://www.w3.org/2000/svg">
<g filter="url(#filter0_d_165_141)">
<rect x="6" y="6" width="70" height="70" rx="12" fill="#00A54F" shape-rendering="crispEdges"/>
<path d="M41.2083 59.75C40.618 59.75 40.1233 59.5503 39.7239 59.151C39.3246 58.7517 39.125 58.2569 39.125 57.6667C39.125 57.4236 39.1771 57.1719 39.2812 56.9115C39.3854 56.651 39.5417 56.4167 39.75 56.2083L49.3854 46.5729L47.875 45.0625L38.2917 54.6979C38.0833 54.9062 37.8576 55.0625 37.6146 55.1667C37.3715 55.2708 37.1111 55.3229 36.8333 55.3229C36.243 55.3229 35.7483 55.1233 35.3489 54.724C34.9496 54.3247 34.75 53.8299 34.75 53.2396C34.75 52.8924 34.8021 52.6059 34.9062 52.3802C35.0104 52.1545 35.1493 51.9549 35.3229 51.7812L44.9583 42.1458L43.5 40.6875L33.8646 50.2708C33.6562 50.4792 33.4305 50.6354 33.1875 50.7396C32.9444 50.8438 32.6667 50.8958 32.3542 50.8958C31.7986 50.8958 31.3125 50.6875 30.8958 50.2708C30.4792 49.8542 30.2708 49.3681 30.2708 48.8125C30.2708 48.5347 30.3229 48.2743 30.4271 48.0312C30.5312 47.7882 30.6875 47.5625 30.8958 47.3542L40.5312 37.7188L39.0208 36.2604L29.4375 45.8958C29.2639 46.0694 29.0555 46.2083 28.8125 46.3125C28.5694 46.4167 28.2743 46.4688 27.9271 46.4688C27.3368 46.4688 26.842 46.2691 26.4427 45.8698C26.0434 45.4705 25.8437 44.9757 25.8437 44.3854C25.8437 44.1076 25.8958 43.8472 26 43.6042C26.1042 43.3611 26.2604 43.1354 26.4687 42.9271L38.0833 31.3125L45.8958 39.1771C46.2778 39.559 46.7292 39.8628 47.25 40.0885C47.7708 40.3142 48.2917 40.4271 48.8125 40.4271C49.9236 40.4271 50.8958 40.0365 51.7292 39.2552C52.5625 38.474 52.9792 37.4757 52.9792 36.2604C52.9792 35.7743 52.8924 35.2708 52.7187 34.75C52.5451 34.2292 52.2326 33.7431 51.7812 33.2917L42.4583 23.9687C43.0486 23.4132 43.7083 22.9878 44.4375 22.6927C45.1667 22.3976 45.8958 22.25 46.625 22.25C47.5278 22.25 48.3611 22.3976 49.125 22.6927C49.8889 22.9878 50.5833 23.4479 51.2083 24.0729L60.0104 32.9271C60.6354 33.5521 61.0955 34.2465 61.3906 35.0104C61.6858 35.7743 61.8333 36.6597 61.8333 37.6667C61.8333 38.3611 61.6771 39.0642 61.3646 39.776C61.0521 40.4878 60.6007 41.1389 60.0104 41.7292L42.6667 59.125C42.3889 59.4028 42.1458 59.5764 41.9375 59.6458C41.7292 59.7153 41.4861 59.75 41.2083 59.75ZM23.3437 43.0833L21.9896 41.7292C21.3993 41.1736 20.9479 40.5139 20.6354 39.75C20.3229 38.9861 20.1667 38.1875 20.1667 37.3542C20.1667 36.4514 20.3403 35.6181 20.6875 34.8542C21.0347 34.0903 21.4687 33.4479 21.9896 32.9271L30.7917 24.0729C31.3472 23.5174 32.0069 23.0747 32.7708 22.7448C33.5347 22.4149 34.2812 22.25 35.0104 22.25C35.9479 22.25 36.7812 22.3802 37.5104 22.6406C38.2396 22.901 38.9514 23.3785 39.6458 24.0729L50.3229 34.75C50.5312 34.9583 50.6875 35.184 50.7917 35.4271C50.8958 35.6701 50.9479 35.9306 50.9479 36.2083C50.9479 36.7639 50.7396 37.25 50.3229 37.6667C49.9062 38.0833 49.4201 38.2917 48.8646 38.2917C48.5521 38.2917 48.2917 38.2483 48.0833 38.1615C47.875 38.0747 47.6493 37.9097 47.4062 37.6667L38.0312 28.3958L23.3437 43.0833Z" fill="white"/>
</g>
<defs>
<filter id="filter0_d_165_141" x="0" y="0" width="82" height="82" filterUnits="userSpaceOnUse" color-interpolation-filters="sRGB">
<feFlood flood-opacity="0" result="BackgroundImageFix"/>
<feColorMatrix in="SourceAlpha" type="matrix" values="0 0 0 0 0 0 0 0 0 0 0 0 0 0 0 0 0 0 127 0" result="hardAlpha"/>
<feOffset/>
<feGaussianBlur stdDeviation="3"/>
<feComposite in2="hardAlpha" operator="out"/>
<feColorMatrix type="matrix" values="0 0 0 0 0 0 0 0 0 0 0 0 0 0 0 0 0 0 0.25 0"/>
<feBlend mode="normal" in2="BackgroundImageFix" result="effect1_dropShadow_165_141"/>
<feBlend mode="normal" in="SourceGraphic" in2="effect1_dropShadow_165_141" result="shape"/>
</filter>
</defs>
</svg>
